<?xml version="1.0" encoding="utf-8"?>
<!-- Generator: Adobe Illustrator 15.0.0, SVG Export Plug-In . SVG Version: 6.00 Build 0)  -->
<!DOCTYPE svg PUBLIC "-//W3C//DTD SVG 1.1//EN" "http://www.w3.org/Graphics/SVG/1.1/DTD/svg11.dtd">
<svg version="1.1" id="Calque_1" xmlns="http://www.w3.org/2000/svg" xmlns:xlink="http://www.w3.org/1999/xlink" x="0px" y="0px"
	 width="176.333px" height="19.882px" viewBox="0 0 176.333 19.882" enable-background="new 0 0 176.333 19.882"
	 xml:space="preserve">
<g>
	<defs>
		<rect id="SVGID_1_" width="176.333" height="19.882"/>
	</defs>
	<clipPath id="SVGID_2_">
		<use xlink:href="#SVGID_1_"  overflow="visible"/>
	</clipPath>
	<path clip-path="url(#SVGID_2_)" d="M176.333,12.357c0-0.478-0.03-0.895-0.06-1.282c-0.238-3.372-2.594-4.207-5.76-4.207h-4.865
		v12.596h2.653V9.014h1.733c2.3,0.002,3.376,1.018,3.376,3.344H176.333z M161.464,2.149h-2.653v12.925
		c0,1.645-0.896,2.543-2.51,2.543c-1.941,0-2.57-0.988-2.57-2.543V2.149h-2.653v12.864c0,3.795,2.505,4.51,5.194,4.51
		c3.105,0,5.192-1.103,5.192-4.51V2.149z M136.807,14.51c0,3.822,1.698,5.104,5.103,5.104c3.315,0,5.282-0.983,5.282-4.625v-3.645
		c0-3.313-1.789-4.626-5.282-4.626c-3.165,0-5.103,1.61-5.103,4.656V14.51z M144.509,11.313v3.257c0,1.701-0.448,3.047-2.569,3.047
		c-2.092,0-2.48-1.464-2.48-3.047v-3.257c0-1.643,0.807-2.568,2.45-2.568C143.732,8.745,144.509,9.671,144.509,11.313
		 M123.131,4.807l4.18-0.627v15.284h2.684V4.18l4.18,0.627V2.24h-11.043V4.807z M120.143,10.983c0-2.327-1.433-4.415-4.119-4.415
		c-1.613,0-3.018,0.925-3.645,2.445c-0.835-0.803-1.818-1.669-2.624-2.505v12.955h2.624v-8.746c0.479-0.868,1.732-1.525,2.868-1.525
		c1.165,0,2.211,0.688,2.211,2.538v7.733h2.713L120.143,10.983z M95.186,14.923c0,2.783,1.371,4.601,5.192,4.601
		c3.613,0,5.192-1.878,5.192-4.601V6.781c0-2.991-1.252-4.632-5.192-4.632c-4.09,0-5.192,2.267-5.192,4.632V14.923z M97.838,6.931
		c0-1.886,1.016-2.635,2.54-2.635c1.673,0,2.511,0.839,2.511,2.545v7.304c0,2.065-0.539,3.264-2.511,3.264
		c-1.403-0.091-2.54-0.479-2.54-3.114V6.931z M91.598,8.983V6.896c-0.925-0.089-1.851-0.118-2.835-0.118
		c-3.822,0-7.461,0.774-7.461,6.447c0,5.165,2.982,6.357,7.461,6.357c1.044,0,1.702-0.149,3.134-0.208v-2.147
		c-0.955,0.061-1.91,0.12-2.925,0.12c-3.344,0-4.957-0.717-4.957-4.151c0-3.824,1.792-4.331,4.688-4.331
		C89.717,8.865,90.643,8.924,91.598,8.983 M69.713,19.464v-10l7.763,10.418V2.09h-2.684v10.12L67.089,1.731v17.732H69.713z
		 M52.518,14.51c0,3.822,1.7,5.104,5.104,5.104c3.315,0,5.283-0.983,5.283-4.625v-3.645c0-3.313-1.789-4.626-5.283-4.626
		c-3.166,0-5.104,1.61-5.104,4.656V14.51z M60.222,11.313v3.257c0,1.701-0.449,3.047-2.57,3.047c-2.092,0-2.48-1.464-2.48-3.047
		v-3.257c0-1.643,0.807-2.568,2.45-2.568C59.445,8.745,60.222,9.671,60.222,11.313 M42.513,19.464c3.795,0,7.136-0.924,7.136-5.342
		c0-2.808-1.968-3.584-3.939-4.33c-2.33-0.926-4.033-1.344-4.033-3.196c0-2.21,1.882-2.449,3.197-2.449h3.761V2.21h-3.552
		c-2.51,0-5.97,0.685-5.97,4.595c0,3.614,3.191,3.913,5.402,4.779c1.315,0.507,2.45,1.015,2.45,2.567
		c0,1.732-0.418,3.137-4.093,3.137h-3.759v2.176H42.513z M30.723,3.102h3.37V0.001h-3.37V3.102z M28.603,6.868v2.119l2.478-0.239
		v8.746l-3.254-0.598v2.567h9.192v-2.567l-3.254,0.598V6.868H28.603z M20.33,4.509c0.537,2.27,1.074,4.509,1.641,6.778h-4.654
		l1.611-6.778H20.33z M22.031,19.464h3.583L22.389,2.24h-5.52l-3.195,17.224h3.583l-0.268-5.942H22.3L22.031,19.464z M0,19.464
		h2.683v-7.791h5.02v7.791h2.684V6.15L5.193,9.823L0,6.15V19.464z"/>
</g>
</svg>
